<svg xmlns="http://www.w3.org/2000/svg" viewBox="0 0 48 48" width="48" height="48">
  <path d="M18.5 6C10.5 6 4 11.4 4 18.2c0 3.9 2.2 7.4 5.6 9.8l-1.4 4.2c-.2.5.4.9.8.6l5-3c1.4.4 2.9.6 4.5.6.5 0 1-.02 1.5-.06-.3-1.1-.5-2.2-.5-3.4 0-7.5 7-13.6 15.5-13.6.5 0 1 .02 1.5.06C34.7 7.9 27.2 6 18.5 6z" fill="#2DC100"/>
  <circle cx="13" cy="16" r="1.5" fill="white"/>
  <circle cx="22" cy="16" r="1.5" fill="white"/>
  <path d="M44 27c0-5.8-5.8-10.5-13-10.5S18 21.2 18 27s5.8 10.5 13 10.5c1.3 0 2.5-.15 3.7-.4l4.2 2.5c.4.3.9-.1.7-.6l-1.1-3.5C41.4 33.4 44 30.4 44 27z" fill="#2DC100"/>
  <circle cx="27" cy="26" r="1.3" fill="white"/>
  <circle cx="35" cy="26" r="1.3" fill="white"/>
</svg>
