<svg xmlns="http://www.w3.org/2000/svg" viewBox="0 0 48 48" width="48" height="48">
  <rect width="48" height="48" rx="10" fill="#5865F2"/>
  <path d="M32.5 16.3a21.6 21.6 0 00-5.4-1.7l-.2.5a20 20 0 00-5.8 0l-.2-.5a21.5 21.5 0 00-5.4 1.7C11.2 22.5 10.3 28.5 10.7 34.4a22 22 0 006.7 3.4l.5-.7 1-1.7a14.2 14.2 0 01-2.2-1.1l.5-.4a15.4 15.4 0 0013.6 0l.5.4c-.7.4-1.4.8-2.2 1.1l1 1.7.5.7a22 22 0 006.7-3.4c.5-6.9-1-12.8-4.8-18.1zM19.6 31c-1.5 0-2.8-1.4-2.8-3.2s1.2-3.2 2.8-3.2 2.8 1.5 2.8 3.2-1.3 3.2-2.8 3.2zm8.8 0c-1.5 0-2.8-1.4-2.8-3.2s1.2-3.2 2.8-3.2 2.8 1.5 2.7 3.2-1.2 3.2-2.7 3.2z" fill="white"/>
</svg>
